<svg height="1246" width="720" xmlns="http://www.w3.org/2000/svg">
<rect height="1246" fill="#555" width="720"></rect>
<text fill="#7f7" font-family="Courier New" font-size="12" xml:space="preserve">
<tspan x="10" y="26">└─┬ gulp-coffeelint@0.6.0 </tspan>
<tspan x="10" y="42">  ├── args-js@0.10.12 </tspan>
<tspan x="10" y="58">  ├─┬ coffeelint@1.16.0 </tspan>
<tspan x="10" y="74">  │ ├── coffee-script@1.11.1 </tspan>
<tspan x="10" y="90">  │ ├─┬ glob@7.1.1 </tspan>
<tspan x="10" y="106">  │ │ ├── fs.realpath@1.0.0 </tspan>
<tspan x="10" y="122">  │ │ ├─┬ inflight@1.0.6 </tspan>
<tspan x="10" y="138">  │ │ │ └── wrappy@1.0.2 </tspan>
<tspan x="10" y="154">  │ │ ├── inherits@2.0.3 </tspan>
<tspan x="10" y="170">  │ │ ├─┬ minimatch@3.0.3 </tspan>
<tspan x="10" y="186">  │ │ │ └─┬ brace-expansion@1.1.6 </tspan>
<tspan x="10" y="202">  │ │ │   ├── balanced-match@0.4.2 </tspan>
<tspan x="10" y="218">  │ │ │   └── concat-map@0.0.1 </tspan>
<tspan x="10" y="234">  │ │ ├── once@1.4.0 </tspan>
<tspan x="10" y="250">  │ │ └── path-is-absolute@1.0.1 </tspan>
<tspan x="10" y="266">  │ ├── ignore@3.2.6 </tspan>
<tspan x="10" y="282">  │ ├─┬ optimist@0.6.1 </tspan>
<tspan x="10" y="298">  │ │ ├── minimist@0.0.10 </tspan>
<tspan x="10" y="314">  │ │ └── wordwrap@0.0.3 </tspan>
<tspan x="10" y="330">  │ ├── resolve@0.6.3 </tspan>
<tspan x="10" y="346">  │ └── strip-json-comments@1.0.4 </tspan>
<tspan x="10" y="362">  ├─┬ coffeelint-stylish@0.1.2 </tspan>
<tspan x="10" y="378">  │ ├─┬ chalk@1.1.3 </tspan>
<tspan x="10" y="394">  │ │ ├── ansi-styles@2.2.1 </tspan>
<tspan x="10" y="410">  │ │ ├── escape-string-regexp@1.0.5 </tspan>
<tspan x="10" y="426">  │ │ ├─┬ has-ansi@2.0.0 </tspan>
<tspan x="10" y="442">  │ │ │ └── ansi-regex@2.1.1 </tspan>
<tspan x="10" y="458">  │ │ ├── strip-ansi@3.0.1 </tspan>
<tspan x="10" y="474">  │ │ └── supports-color@2.0.0 </tspan>
<tspan x="10" y="490">  │ └── text-table@0.2.0 </tspan>
<tspan x="10" y="506">  ├─┬ gulp-util@3.0.8 </tspan>
<tspan x="10" y="522">  │ ├── array-differ@1.0.0 </tspan>
<tspan x="10" y="538">  │ ├── array-uniq@1.0.3 </tspan>
<tspan x="10" y="554">  │ ├── beeper@1.1.1 </tspan>
<tspan x="10" y="570">  │ ├── dateformat@2.0.0 </tspan>
<tspan x="10" y="586">  │ ├─┬ fancy-log@1.3.0 </tspan>
<tspan x="10" y="602">  │ │ └── time-stamp@1.0.1 </tspan>
<tspan x="10" y="618">  │ ├─┬ gulplog@1.0.0 </tspan>
<tspan x="10" y="634">  │ │ └── glogg@1.0.0 </tspan>
<tspan x="10" y="650">  │ ├─┬ has-gulplog@0.1.0 </tspan>
<tspan x="10" y="666">  │ │ └── sparkles@1.0.0 </tspan>
<tspan x="10" y="682">  │ ├── lodash._reescape@3.0.0 </tspan>
<tspan x="10" y="698">  │ ├── lodash._reevaluate@3.0.0 </tspan>
<tspan x="10" y="714">  │ ├── lodash._reinterpolate@3.0.0 </tspan>
<tspan x="10" y="730">  │ ├─┬ lodash.template@3.6.2 </tspan>
<tspan x="10" y="746">  │ │ ├── lodash._basecopy@3.0.1 </tspan>
<tspan x="10" y="762">  │ │ ├── lodash._basetostring@3.0.1 </tspan>
<tspan x="10" y="778">  │ │ ├── lodash._basevalues@3.0.0 </tspan>
<tspan x="10" y="794">  │ │ ├── lodash._isiterateecall@3.0.9 </tspan>
<tspan x="10" y="810">  │ │ ├─┬ lodash.escape@3.2.0 </tspan>
<tspan x="10" y="826">  │ │ │ └── lodash._root@3.0.1 </tspan>
<tspan x="10" y="842">  │ │ ├─┬ lodash.keys@3.1.2 </tspan>
<tspan x="10" y="858">  │ │ │ ├── lodash._getnative@3.9.1 </tspan>
<tspan x="10" y="874">  │ │ │ ├── lodash.isarguments@3.1.0 </tspan>
<tspan x="10" y="890">  │ │ │ └── lodash.isarray@3.0.4 </tspan>
<tspan x="10" y="906">  │ │ ├── lodash.restparam@3.6.1 </tspan>
<tspan x="10" y="922">  │ │ └── lodash.templatesettings@3.1.1 </tspan>
<tspan x="10" y="938">  │ ├── minimist@1.2.0 </tspan>
<tspan x="10" y="954">  │ ├─┬ multipipe@0.1.2 </tspan>
<tspan x="10" y="970">  │ │ └─┬ duplexer2@0.0.2 </tspan>
<tspan x="10" y="986">  │ │   └─┬ readable-stream@1.1.14 </tspan>
<tspan x="10" y="1002">  │ │     └── isarray@0.0.1 </tspan>
<tspan x="10" y="1018">  │ ├── object-assign@3.0.0 </tspan>
<tspan x="10" y="1034">  │ ├── replace-ext@0.0.1 </tspan>
<tspan x="10" y="1050">  │ └─┬ vinyl@0.5.3 </tspan>
<tspan x="10" y="1066">  │   ├── clone@1.0.2 </tspan>
<tspan x="10" y="1082">  │   └── clone-stats@0.0.1 </tspan>
<tspan x="10" y="1098">  └─┬ through2@2.0.3 </tspan>
<tspan x="10" y="1114">    ├─┬ readable-stream@2.2.6 </tspan>
<tspan x="10" y="1130">    │ ├── buffer-shims@1.0.0 </tspan>
<tspan x="10" y="1146">    │ ├── core-util-is@1.0.2 </tspan>
<tspan x="10" y="1162">    │ ├── isarray@1.0.0 </tspan>
<tspan x="10" y="1178">    │ ├── process-nextick-args@1.0.7 </tspan>
<tspan x="10" y="1194">    │ ├── string_decoder@0.10.31 </tspan>
<tspan x="10" y="1210">    │ └── util-deprecate@1.0.2 </tspan>
<tspan x="10" y="1226">    └── xtend@4.0.1</tspan>
</text>
</svg>
